<svg viewBox="0 0 100 40" xmlns="http://www.w3.org/2000/svg" width="100.000000" height="40.000000" fill="none"
     customFrame="#000000">
	<path id="Vector" d="M6.99223 24.2324L0.262933 24.2324L9.40788 0L16.3097 0L25.4547 24.2324L18.7254 24.2324L17.1725 19.9052L8.54515 19.9052L6.99223 24.2324ZM42.0339 0L48.2456 0L48.2456 17.6551C48.2456 20.0783 47.6934 21.8438 46.5891 22.9516C45.5079 24.0363 43.7594 24.5786 41.3437 24.5786L33.4066 24.5786C30.991 24.5786 29.231 24.0363 28.1267 22.9516C27.0454 21.8438 26.5048 20.0783 26.5048 17.6551L26.5048 0L32.7164 0L32.7164 17.6551C32.7164 19.0398 33.4066 19.7321 34.787 19.7321L39.9634 19.7321C41.3438 19.7321 42.0339 19.0398 42.0339 17.6551L42.0339 0ZM52.3867 0L66.8806 0C69.2962 0 71.0447 0.553884 72.126 1.66165Q73.7824 3.28869 73.7824 6.92355L73.7824 10.0392C73.7824 11.9547 73.4603 13.4432 72.8162 14.5048C72.195 15.5665 71.1942 16.2703 69.8139 16.6165L74.1275 24.2324L67.3982 24.2324L63.4297 16.9627L58.5984 16.9627L58.5984 24.2324L52.3867 24.2324L52.3867 0ZM81.5376 24.2324L74.8083 24.2324L83.9532 0L90.8551 0L100 24.2324L93.2707 24.2324L91.7178 19.9052L83.0905 19.9052L81.5376 24.2324ZM67.5708 6.92355Q67.5708 5.88177 67.0499 5.3625Q66.5322 4.84649 65.5002 4.84649L58.5984 4.84649L58.5984 12.1162L65.5002 12.1162Q66.5322 12.1162 67.0499 11.6002Q67.5708 11.0809 67.5708 10.0392L67.5708 6.92355ZM10.0981 15.4049L15.6195 15.4049L12.8588 7.26973L10.0981 15.4049ZM84.6434 15.4049L90.1649 15.4049L87.4041 7.26973L84.6434 15.4049ZM11.493 32.2852L13.3622 32.2852L13.3622 33.7853L11.493 33.7853L11.493 32.2852ZM84.4375 32.2852L86.3068 32.2852L86.3068 33.7853L84.4375 33.7853L84.4375 32.2852ZM22.1756 37.6427L22.1756 39.8928L20.3064 39.8928L20.3064 32.3923L22.1756 32.3923L22.1756 36.1962L23.0302 36.1962L24.2051 34.2139L26.1812 34.2139L24.579 36.9462L26.1812 39.8928L24.2051 39.8928L22.9768 37.6427L22.1756 37.6427ZM62.8076 39.8928Q62.092 40 61.4404 40C61.0132 40 60.6535 39.8536 60.3616 39.5607C60.0696 39.2678 59.9236 38.8785 59.9236 38.3927L59.9236 32.3923L61.7929 32.3923L61.7929 38.1249C61.7929 38.232 61.8285 38.3213 61.8997 38.3927C61.9709 38.4642 62.0599 38.4999 62.1667 38.4999L62.8076 38.4999L62.8076 39.8928ZM66.4377 39.8928Q65.722 40 65.0704 40C64.6432 40 64.2836 39.8536 63.9916 39.5607C63.6996 39.2678 63.5537 38.8785 63.5537 38.3927L63.5537 32.3923L65.4229 32.3923L65.4229 38.1249C65.4229 38.232 65.4585 38.3213 65.5297 38.3927C65.6009 38.4642 65.6899 38.4999 65.7968 38.4999L66.4377 38.4999L66.4377 39.8928ZM10.4686 39.8928Q9.43254 40 8.43916 40C7.95494 40 7.56685 39.8536 7.27489 39.5607Q7.17205 39.4575 7.09336 39.3384Q6.83695 38.9503 6.83695 38.3927L6.83695 35.6604L6.19606 35.6604L6.19606 34.2139L6.83695 34.2139L7.05058 32.9281L8.7062 32.9281L8.7062 34.2139L10.0414 34.2139L10.0414 35.6604L8.7062 35.6604L8.7062 38.1249C8.7062 38.232 8.7418 38.3213 8.81301 38.3927Q8.85606 38.4359 8.90779 38.4617Q8.9844 38.4999 9.08005 38.4999L10.4686 38.4999L10.4686 39.8928ZM83.4132 39.8928Q82.3771 40 81.3837 40Q80.8328 40 80.4478 39.7473Q80.3252 39.6668 80.2194 39.5607C79.9275 39.2678 79.7815 38.8785 79.7815 38.3927L79.7815 35.6604L79.1406 35.6604L79.1406 34.2139L79.7815 34.2139L79.9951 32.9281L81.6508 32.9281L81.6508 34.2139L82.9859 34.2139L82.9859 35.6604L81.6508 35.6604L81.6508 38.1249C81.6508 38.232 81.6864 38.3213 81.7576 38.3927C81.8288 38.4642 81.9178 38.4999 82.0246 38.4999L83.4132 38.4999L83.4132 39.8928ZM31.8407 39.7857C30.4663 39.9286 29.2202 40 28.1022 40C27.6179 40 27.2299 39.8536 26.9379 39.5607Q26.8351 39.4575 26.7564 39.3384Q26.5 38.9503 26.5 38.3927L26.5 35.8211C26.5 35.2854 26.6495 34.8675 26.9486 34.5675C27.2548 34.2603 27.6749 34.1067 28.209 34.1067L30.3453 34.1067C30.8793 34.1067 31.2959 34.2603 31.595 34.5675C31.9012 34.8675 32.0543 35.2854 32.0543 35.8211L32.0543 37.8034L28.3692 37.8034L28.3692 38.232C28.3692 38.3392 28.4048 38.4285 28.476 38.4999C28.5472 38.5713 28.6362 38.607 28.7431 38.607C29.448 38.607 30.4806 38.5535 31.8407 38.4463L31.8407 39.7857ZM36.2693 35.7676C35.8207 35.7676 35.3578 35.8747 34.8807 36.089L34.8807 39.8928L33.0115 39.8928L33.0115 34.2139L34.6671 34.2139L34.7739 34.9104C35.3863 34.3746 36.0272 34.1067 36.6965 34.1067L37.1772 34.1067L37.1772 35.7676L36.2693 35.7676ZM58.9636 38.2856C58.9636 38.8214 58.8105 39.2428 58.5043 39.55C58.2052 39.85 57.7886 40 57.2545 40L54.7978 40C54.2637 40 53.8436 39.85 53.5374 39.55C53.2383 39.2428 53.0888 38.8214 53.0888 38.2856L53.0888 35.8211C53.0888 35.2854 53.2383 34.8675 53.5374 34.5675C53.8436 34.2603 54.2637 34.1067 54.7978 34.1067L57.2545 34.1067C57.7886 34.1067 58.2052 34.2603 58.5043 34.5675C58.8105 34.8675 58.9636 35.2854 58.9636 35.8211L58.9636 38.2856ZM72.4176 39.7857C71.0432 39.9286 69.7971 40 68.6791 40Q68.1282 40 67.7432 39.7473Q67.6206 39.6668 67.5148 39.5607Q67.412 39.4576 67.3334 39.3386L67.3333 39.3384Q67.0769 38.9503 67.0769 38.3927L67.0769 35.8211C67.0769 35.2854 67.2264 34.8675 67.5255 34.5675C67.8317 34.2603 68.2518 34.1067 68.7859 34.1067L70.9222 34.1067C71.4563 34.1067 71.8728 34.2603 72.1719 34.5675C72.4781 34.8675 72.6312 35.2854 72.6312 35.8211L72.6312 37.8034L68.9461 37.8034L68.9461 38.232C68.9461 38.3392 68.9817 38.4285 69.0529 38.4999Q69.096 38.5431 69.1477 38.5689Q69.2243 38.607 69.32 38.607C70.0249 38.607 71.0575 38.5535 72.4176 38.4463L72.4176 39.7857ZM93.1462 38.2856C93.1462 38.8214 92.9931 39.2428 92.6869 39.55C92.3878 39.85 91.9713 40 91.4372 40L88.9805 40C88.4464 40 88.0263 39.85 87.7201 39.55C87.421 39.2428 87.2714 38.8214 87.2714 38.2856L87.2714 35.8211C87.2714 35.2854 87.421 34.8675 87.7201 34.5675C88.0263 34.2603 88.4464 34.1067 88.9805 34.1067L91.4372 34.1067C91.9713 34.1067 92.3878 34.2603 92.6869 34.5675C92.9931 34.8675 93.1462 35.2854 93.1462 35.8211L93.1462 38.2856ZM97.2573 35.6604C96.8799 35.6604 96.4527 35.7318 95.9756 35.8747L95.9756 39.8928L94.1063 39.8928L94.1063 34.2139L95.7619 34.2139L95.8687 34.7496C96.2034 34.5282 96.5452 34.3675 96.8942 34.2675C97.2502 34.1603 97.5493 34.1067 97.7914 34.1067L98.2721 34.1067Q98.823 34.1067 99.208 34.3595Q99.3306 34.44 99.4363 34.5461C99.7283 34.8389 99.8743 35.2282 99.8743 35.714L99.8743 39.8928L98.005 39.8928L98.005 36.0354C98.005 35.9283 97.9694 35.839 97.8982 35.7676C97.827 35.6961 97.738 35.6604 97.6312 35.6604L97.2573 35.6604ZM0.106814 38.3927C1.55237 38.4999 2.69172 38.5535 3.52487 38.5535C3.63169 38.5535 3.7207 38.5178 3.79191 38.4463C3.86312 38.3749 3.89872 38.2856 3.89872 38.1784L3.89872 37.8034L1.60221 37.8034Q1.05129 37.8034 0.66629 37.5507Q0.543704 37.4702 0.437939 37.3641Q0.335097 37.2609 0.256406 37.1418Q0 36.7537 0 36.1962L0 35.8211Q0 35.2636 0.256406 34.8755Q0.335097 34.7564 0.437939 34.6532Q0.543704 34.5471 0.66629 34.4666Q1.05129 34.2139 1.60221 34.2139L5.2339 34.2139L5.2339 35.6068L2.2431 35.6068C2.13629 35.6068 2.04727 35.6426 1.97606 35.714C1.90485 35.7854 1.86925 35.8747 1.86925 35.9819C1.86925 36.089 1.90485 36.1783 1.97606 36.2497C2.04727 36.3212 2.13629 36.3569 2.2431 36.3569L4.16576 36.3569Q4.71668 36.3569 5.10168 36.6096Q5.22427 36.6901 5.33003 36.7962Q5.43287 36.8994 5.51157 37.0185Q5.76797 37.4066 5.76797 37.9641L5.76797 38.3927Q5.76797 38.9503 5.51157 39.3384Q5.43287 39.4575 5.33003 39.5607Q5.22427 39.6668 5.10168 39.7473Q4.71668 40 4.16576 40C2.90535 40 1.55237 39.9286 0.106814 39.7857L0.106814 38.3927ZM19.454 39.7857C18.1224 39.9286 16.9474 40 15.9291 40Q15.3782 40 14.9932 39.7473Q14.8706 39.6668 14.7648 39.5607Q14.662 39.4575 14.5833 39.3384Q14.3269 38.9503 14.3269 38.3927L14.3269 35.9283C14.3269 35.3925 14.4764 34.9747 14.7755 34.6746C15.0817 34.3675 15.5018 34.2139 16.0359 34.2139L19.454 34.2139L19.454 35.6604L16.6234 35.6604C16.3386 35.6604 16.1961 35.8033 16.1961 36.089L16.1961 38.1784C16.1961 38.2856 16.2317 38.3749 16.3029 38.4463C16.3742 38.5178 16.4632 38.5535 16.57 38.5535C17.2109 38.5535 18.1722 38.4999 19.454 38.3927L19.454 39.7857ZM37.7109 38.3927C39.1564 38.4999 40.2958 38.5535 41.1289 38.5535C41.2357 38.5535 41.3248 38.5178 41.396 38.4463C41.4672 38.3749 41.5028 38.2856 41.5028 38.1784L41.5028 37.8034L39.2063 37.8034Q38.6553 37.8034 38.2703 37.5507Q38.1477 37.4702 38.042 37.3641C37.75 37.0712 37.6041 36.6819 37.6041 36.1962L37.6041 35.8211C37.6041 35.3354 37.75 34.9461 38.042 34.6532Q38.1477 34.5471 38.2703 34.4666Q38.6553 34.2139 39.2063 34.2139L42.838 34.2139L42.838 35.6068L39.8472 35.6068Q39.7515 35.6068 39.6749 35.645Q39.6232 35.6708 39.5801 35.714C39.5089 35.7854 39.4733 35.8747 39.4733 35.9819C39.4733 36.089 39.5089 36.1783 39.5801 36.2497C39.6513 36.3212 39.7403 36.3569 39.8472 36.3569L41.7698 36.3569Q42.3207 36.3569 42.7058 36.6096Q42.8284 36.6901 42.9341 36.7962C43.226 37.0891 43.372 37.4784 43.372 37.9641L43.372 38.3927C43.372 38.8785 43.226 39.2678 42.9341 39.5607Q42.8284 39.6668 42.7058 39.7472Q42.3207 40 41.7698 40C40.5094 40 39.1564 39.9286 37.7109 39.7857L37.7109 38.3927ZM52.3432 39.7857C51.0116 39.9286 49.8366 40 48.8183 40C48.3341 40 47.946 39.8536 47.654 39.5607C47.3621 39.2678 47.2161 38.8785 47.2161 38.3927L47.2161 35.9283C47.2161 35.3925 47.3656 34.9747 47.6647 34.6746C47.9709 34.3675 48.391 34.2139 48.9251 34.2139L52.3432 34.2139L52.3432 35.6604L49.5126 35.6604C49.2278 35.6604 49.0853 35.8033 49.0853 36.089L49.0853 38.1784C49.0853 38.2856 49.1209 38.3749 49.1922 38.4463C49.2634 38.5178 49.3524 38.5535 49.4592 38.5535C50.1001 38.5535 51.0614 38.4999 52.3432 38.3927L52.3432 39.7857ZM78.6086 39.7857C77.277 39.9286 76.1021 40 75.0838 40C74.5995 40 74.2115 39.8536 73.9195 39.5607Q73.8167 39.4576 73.7381 39.3386L73.738 39.3384Q73.4816 38.9503 73.4816 38.3927L73.4816 35.9283C73.4816 35.3925 73.6311 34.9747 73.9302 34.6746C74.2364 34.3675 74.6565 34.2139 75.1906 34.2139L78.6086 34.2139L78.6086 35.6604L75.7781 35.6604C75.4932 35.6604 75.3508 35.8033 75.3508 36.089L75.3508 38.1784C75.3508 38.2856 75.3864 38.3749 75.4576 38.4463C75.5288 38.5178 75.6178 38.5535 75.7247 38.5535C76.3655 38.5535 77.3269 38.4999 78.6086 38.3927L78.6086 39.7857ZM13.3622 34.4282L13.3622 39.8928L11.493 39.8928L11.493 35.8747L10.6919 35.8747L10.6919 34.4282L13.3622 34.4282ZM86.3068 34.4282L86.3068 39.8928L84.4375 39.8928L84.4375 35.8747L83.6364 35.8747L83.6364 34.4282L86.3068 34.4282ZM28.7965 35.4461C28.5116 35.4461 28.3692 35.589 28.3692 35.8747L28.3692 36.464L30.1851 36.464L30.1851 35.8747C30.1851 35.589 30.0426 35.4461 29.7578 35.4461L28.7965 35.4461ZM69.3734 35.4461C69.0885 35.4461 68.9461 35.589 68.9461 35.8747L68.9461 36.464L70.762 36.464L70.762 35.8747C70.762 35.589 70.6195 35.4461 70.3347 35.4461L69.3734 35.4461ZM57.0943 35.9819C57.0943 35.6961 56.9519 35.5533 56.6671 35.5533L55.3853 35.5533C55.1005 35.5533 54.958 35.6961 54.958 35.9819L54.958 38.1249C54.958 38.4106 55.1005 38.5535 55.3853 38.5535L56.6671 38.5535C56.9519 38.5535 57.0943 38.4106 57.0943 38.1249L57.0943 35.9819ZM91.277 35.9819C91.277 35.6961 91.1346 35.5533 90.8497 35.5533L89.568 35.5533C89.2831 35.5533 89.1407 35.6961 89.1407 35.9819L89.1407 38.1249C89.1407 38.4106 89.2831 38.5535 89.568 38.5535L90.8497 38.5535C91.1346 38.5535 91.277 38.4106 91.277 38.1249L91.277 35.9819Z" fill="rgb(6.50339,6.41927,10.625)" fill-rule="evenodd" />
</svg>
