<svg viewBox="0 0 32 32" xmlns="http://www.w3.org/2000/svg" xmlns:xlink="http://www.w3.org/1999/xlink" width="32.000000" height="32.000000" fill="none">
	<rect id="insert_emoticon" width="32.000000" height="32.000000" x="0.000000" y="0.000000" />
	<path id="Vector" d="M0 0L32 0L32 32L0 32L0 0Z" fill-rule="nonzero" />
	<path id="Vector" d="M15.9866 2.6665C8.62663 2.6665 2.66663 8.63984 2.66663 15.9998C2.66663 23.3598 8.62663 29.3332 15.9866 29.3332C23.36 29.3332 29.3333 23.3598 29.3333 15.9998C29.3333 8.63984 23.36 2.6665 15.9866 2.6665ZM16 26.6665C10.1066 26.6665 5.33329 21.8932 5.33329 15.9998C5.33329 10.1065 10.1066 5.33317 16 5.33317C21.8933 5.33317 26.6666 10.1065 26.6666 15.9998C26.6666 21.8932 21.8933 26.6665 16 26.6665ZM20.6666 14.6665C21.7733 14.6665 22.6666 13.7732 22.6666 12.6665C22.6666 11.5598 21.7733 10.6665 20.6666 10.6665C19.56 10.6665 18.6666 11.5598 18.6666 12.6665C18.6666 13.7732 19.56 14.6665 20.6666 14.6665ZM11.3333 14.6665C12.44 14.6665 13.3333 13.7732 13.3333 12.6665C13.3333 11.5598 12.44 10.6665 11.3333 10.6665C10.2266 10.6665 9.33329 11.5598 9.33329 12.6665C9.33329 13.7732 10.2266 14.6665 11.3333 14.6665ZM16 23.3332C19.1066 23.3332 21.7466 21.3865 22.8133 18.6665L9.18663 18.6665C10.2533 21.3865 12.8933 23.3332 16 23.3332Z" fill="rgb(70.2578,244.375,218.506)" fill-rule="nonzero" />
</svg>
