<svg viewBox="0 0 32 32" xmlns="http://www.w3.org/2000/svg" xmlns:xlink="http://www.w3.org/1999/xlink" width="32.000000" height="32.000000" fill="none">
	<rect id="collections" width="32.000000" height="32.000000" x="0.000000" y="0.000000" />
	<path id="Vector" d="M0 0L32 0L32 32L0 32L0 0Z" fill-rule="nonzero" />
	<path id="Vector" d="M29.3333 21.3332L29.3333 5.33317C29.3333 3.8665 28.1333 2.6665 26.6666 2.6665L10.6666 2.6665C9.19996 2.6665 7.99996 3.8665 7.99996 5.33317L7.99996 21.3332C7.99996 22.7998 9.19996 23.9998 10.6666 23.9998L26.6666 23.9998C28.1333 23.9998 29.3333 22.7998 29.3333 21.3332ZM14.6666 15.9998L17.3733 19.6132L21.3333 14.6665L26.6666 21.3332L10.6666 21.3332L14.6666 15.9998ZM2.66663 7.99984L2.66663 26.6665C2.66663 28.1332 3.86663 29.3332 5.33329 29.3332L24 29.3332L24 26.6665L5.33329 26.6665L5.33329 7.99984L2.66663 7.99984Z" fill="rgb(70.2578,244.375,218.506)" fill-rule="nonzero" />
</svg>
